<svg xmlns="http://www.w3.org/2000/svg" xmlns:v="https://vecta.io/nano" width="53" height="24" fill="#fff"><path d="M15.203 23.5c12.779 0 8.878-3.675 8.878-8.386 0-3.718-2.986-6.922-7.748-6.922-.92 0-1.894.106-2.791.319-.227.054-.445-.128-.353-.301l1.541-2.9c.042-.079.14-.131.248-.131h9.491c.127 0 .237-.071.263-.169L25.868.758C25.904.625 25.776.5 25.605.5h-14.5c-.109 0-.207.052-.249.132L4.339 13.185c-.073.141.057.295.249.295h6.244c.06 0 .118-.016.167-.044.322-.184 1.652-.886 3.195-.886 2.784 0 3.793 1.538 3.793 2.948 0 1.923-2.058 3.333-4.399 3.333H2.464c-.109 0-.202.052-.243.132l-2.2 4.241c-.073.141.052.295.244.295h14.938z"/><path d="M14.684 23.103c-.17.134-.05.365.19.365h9.706a.31.31 0 0 0 .191-.063l7.538-6.03c.125-.1.337-.078.425.045l4.259 5.941c.048.067.137.108.234.108h8.748c.207 0 .337-.178.233-.321l-7.419-10.2c-.059-.081-.045-.183.036-.252l8.816-7.563c.159-.137.037-.359-.197-.359h-9.671c-.079 0-.154.028-.206.076l-2.782 2.618c-.124.116-.357.096-.445-.04L29.915.616C29.869.545 29.777.5 29.676.5h-8.645c-.203 0-.332.171-.238.313l7.508 11.307c.055.083.036.185-.048.251L14.684 23.103zm23.57-19.221c-.054.092.03.197.158.197h9.838c.071 0 .14-.022.19-.062l3.569-2.831c.17-.135.05-.365-.19-.365h-9.902a.3.3 0 0 0-.208.079l-3.431 2.954c-.009.009-.017.019-.023.029z"/></svg>
